<svg width="500" height="500" xmlns="http://www.w3.org/2000/svg" t="1762861843237" class="icon" version="1.1" p-id="5551">
 <g>
  <title>Layer 1</title>
  <path d="m221.98939,212.21022c-3.92867,-52.16156 -24.41366,-78.55328 -21.88613,-102.40499c3.64144,-34.32898 31.24449,-76.63266 48.57007,-76.26552c17.21818,1.28125 38.35754,51.0951 34.63368,83.61834c-2.44012,21.30419 -27.49316,48.8448 -30.49273,105.56441" fill="#F4F4F4" p-id="5552" id="svg_1"/>
  <path d="m246.76269,40.97744c4.41569,0.512 12.53776,10.27747 19.06638,25.16293c7.26791,16.57132 11.1591,35.59025 9.80043,49.61904c-0.08492,0.83669 -0.20979,1.70834 -0.38462,2.62744c-0.98404,5.11251 -2.64742,9.49822 -8.22197,22.51301c-6.18646,14.42591 -9.37834,22.72031 -12.58022,33.84695c-4.31329,14.98537 -6.88328,30.5127 -7.48769,47.55356a7.49268,7.49268 0 0 0 14.98038,0.53198c0.55695,-15.78708 2.92963,-30.09811 6.91324,-43.93959c2.98209,-10.37237 5.99415,-18.19723 11.94834,-32.08617c6.07157,-14.16117 7.89978,-18.97397 9.17104,-25.58501c0.25725,-1.36617 0.45705,-2.69986 0.58193,-4.01358c3.4816,-35.9424 -20.18529,-89.89971 -43.11789,-91.20343l-0.39711,-0.01249c-22.59294,-0.08242 -51.41729,46.55953 -54.72406,83.93553c-0.95657,10.81444 1.11391,19.24121 8.2969,39.78615c9.5157,27.2309 13.29951,41.30965 15.36749,63.57042a7.49268,7.49268 0 1 0 14.92043,-1.38615c-2.20785,-23.78178 -6.25389,-38.82958 -16.15173,-67.13444c-6.44371,-18.42701 -8.21697,-25.62997 -7.51516,-33.51727c1.33869,-15.11774 7.92976,-33.24254 17.17073,-48.19294c8.33187,-13.48183 17.46545,-21.85865 22.36316,-22.07843l0,0.00249z" fill="#524F75" p-id="5553" id="svg_2"/>
  <path d="m232.89873,161.79945c-1.89814,-26.5216 -12.37291,-39.89603 -11.01424,-52.03168c1.9481,-17.46794 16.23414,-39.04437 25.14294,-38.89702c8.84636,0.6119 19.59836,25.89721 17.60781,42.44355c-1.05897,8.83138 -9.84039,19.80066 -13.96886,39.14927c-0.93659,4.41069 -1.97307,6.47118 -2.28527,11.82595c-0.3097,5.35228 -3.92616,12.37042 -9.79793,11.5762c-2.74232,-0.36964 -4.63547,-5.05756 -5.68445,-14.06627z" fill="#F0D2CB" p-id="5554" id="svg_3"/>
  <path d="m32.69674,249.5088c-0.86416,-5.7319 -1.96308,-13.04476 -1.75329,-19.43102c0.2098,-6.38627 4.68793,-12.1931 11.32145,-14.09374c6.62852,-1.90314 13.95137,2.03052 16.7861,6.01912c1.88816,2.6624 4.83278,8.94127 8.83388,18.8391" fill="#9D9BB3" p-id="5555" id="svg_4"/>
  <path d="m45.15208,249.39891c-3.73885,-8.17702 -5.46217,-12.42287 -6.59356,-16.91099c-0.77924,-3.09697 0.66185,-6.58856 3.70638,-8.48421c2.42763,-1.51852 7.07059,-0.99403 9.14607,0.66185c1.92811,1.541 6.25639,6.49616 12.45783,14.43091a7.49268,7.49268 0 1 0 11.80847,-9.22599c-6.94572,-8.88632 -11.74104,-14.37846 -14.91044,-16.91348c-6.81085,-5.43969 -18.32461,-6.73593 -26.44667,-1.66088c-8.50919,5.3173 -12.67263,15.39246 -10.29245,24.85073c1.4311,5.68195 3.36921,10.45479 7.49268,19.48097a7.49268,7.49268 0 0 0 13.62919,-6.22891l0.0025,0z" fill="#524F75" p-id="5556" id="svg_5"/>
  <path d="m42.7719,252.08628l-0.78673,-11.14411a5.85428,5.85428 0 0 1 4.99013,-6.20395a6.56359,6.56359 0 0 1 7.15551,4.34576l3.83126,11.04422a7.23793,7.23793 0 0 1 -5.8393,9.54068a8.24195,8.24195 0 0 1 -9.35087,-7.5826z" fill="#75738E" p-id="5557" id="svg_6"/>
  <path d="m308.61729,104.47044c30.90232,12.05573 74.85939,40.00094 84.44004,77.90642c7.52265,29.75344 9.22349,53.27797 5.11001,70.57358c-4.82279,20.2777 -28.80188,53.69756 -54.57671,105.979c-6.19645,12.57522 -12.15812,41.6818 -17.87504,87.32473l-190.58138,-40.91005c34.05424,-71.7849 51.08261,-125.97448 51.08261,-162.57374c0,-36.59926 -17.02837,-70.68098 -51.08261,-102.24765c23.59695,-17.70271 49.25939,-31.67407 72.94876,-38.78962a159.66907,159.66907 0 0 1 13.93139,-3.50408l13.60671,22.37565a4.99512,4.99512 0 0 0 8.24695,0.42209l19.7657,-26.02958c7.43524,0.36714 14.88796,1.26127 22.23828,2.74732l0.65186,16.45143a4.99512,4.99512 0 0 0 8.45674,3.40168l13.63669,-13.12718z" fill="#F4F4F4" p-id="5558" id="svg_7"/>
  <path d="m363.95325,320.19477a984.7858,984.7858 0 0 0 -12.23306,22.71282a125.18275,125.18275 0 0 1 -6.41373,-2.97959c-10.04769,-5.05257 -21.40909,-13.04726 -34.07922,-23.98158l12.95984,-10.35239c16.47891,7.27539 29.05413,11.9808 37.72067,14.12121c0.64686,0.16234 1.3287,0.32218 2.0455,0.47953zm29.51368,-54.23204c-3.52406,7.82236 -8.54166,16.98591 -14.55329,27.65799a134.4537,134.4537 0 0 1 -5.18993,-0.68183c-11.32145,-1.73081 -24.70588,-5.6295 -40.1433,-11.69358l9.12859,-13.84898c16.44394,0.59442 28.78688,0.59442 37.02634,0c3.34423,-0.24226 7.92226,-0.7193 13.73159,-1.4336zm0.01748,-81.86755c4.56055,18.44699 6.84831,34.45885 6.8633,48.03809c-7.38529,2.56749 -13.59173,4.31828 -18.61682,5.25237c-10.59965,1.96808 -24.92816,1.96808 -42.99302,0l-12.33295,-30.11809c20.63485,-3.93116 36.12222,-8.05463 46.46212,-12.37042c5.77437,-2.41014 12.64765,-6.01163 20.61737,-10.80195zm-155.87278,-61.6398a4.99013,4.99013 0 0 0 6.25639,-1.42611l19.7657,-26.02958c7.43524,0.36714 14.88796,1.26127 22.23828,2.74732l0.65186,16.45143a4.99512,4.99512 0 0 0 8.45674,3.40168l3.70638,-3.56902c-0.13237,5.75938 -0.4096,10.76199 -0.83168,15.01284c-1.2263,12.37042 -4.65795,28.19746 -10.29245,47.47864l-45.0535,-8.76894c-0.93659,-20.97951 -2.52754,-35.91742 -4.77284,-44.81623l-0.12488,-0.48203zm-63.85015,67.93865c-8.51418,-17.26814 -21.38661,-33.8919 -38.62727,-49.8713c12.1831,-9.14107 24.91816,-17.28562 37.64823,-24.00655c7.69748,6.3413 12.81998,11.89838 15.37498,16.66622c4.94268,9.23348 12.03575,27.28585 21.27673,54.15711l-35.67267,3.05452z" fill="#8A88A2" p-id="5559" id="svg_8"/>
  <path d="m308.61729,104.47044l-13.63918,13.12968a4.99262,4.99262 0 0 1 -8.45674,-3.40168l-0.65187,-16.45143a149.48402,149.48402 0 0 0 -22.23828,-2.74732l-19.7632,26.02958a4.99512,4.99512 0 0 1 -8.24695,-0.42209l-13.60671,-22.37565a160.11863,160.11863 0 0 0 -13.93139,3.50408c-23.68937,7.11555 -49.35181,21.08691 -72.94876,38.78962c34.05424,31.56417 51.08261,65.64589 51.08261,102.24515c0,36.59676 -17.02837,90.78884 -51.08261,162.57374l190.58138,40.91005c5.71692,-45.64293 11.67859,-74.74951 17.87504,-87.32473c25.77234,-52.28394 49.75392,-85.7013 54.57671,-105.979c4.11348,-17.29561 2.41264,-40.82014 -5.11001,-70.57358c-9.58065,-37.90548 -53.53772,-65.85319 -84.44004,-77.90642zm-67.81378,-4.18591l10.89436,-14.34849a14.97787,14.97787 0 0 1 12.67263,-5.90424c8.31188,0.4121 16.49889,1.41363 24.4661,3.02455a14.98037,14.98037 0 0 1 11.00176,9.26595a14.98537,14.98537 0 0 1 14.22361,-1.81572c44.49904,17.36054 83.80566,49.7639 93.51618,88.19387c8.06462,31.88886 9.9303,57.67368 5.15996,77.7166c-2.565,10.79696 -7.96972,21.83868 -20.95704,44.87618c-1.4336,2.54751 -6.79087,12.00577 -7.82486,13.84148a1565.15653,1565.15653 0 0 0 -8.52417,15.2576c-6.72344,12.21557 -12.67013,23.52703 -18.40703,35.16316c-5.18993,10.52722 -10.94681,38.63727 -16.44893,82.56188a14.98537,14.98537 0 0 1 -18.01491,12.78751l-190.57889,-40.91005c-9.45077,-2.02802 -14.5358,-12.34295 -10.39485,-21.07442c33.1801,-69.9367 49.63653,-122.31555 49.63653,-156.15001c0,-32.11614 -15.11024,-62.3616 -46.2848,-91.25838c-6.8558,-6.35379 -6.28386,-17.36554 1.19383,-22.97506c25.48761,-19.11883 52.64609,-33.64964 77.63669,-41.15731a175.91821,175.91821 0 0 1 15.23512,-3.83126a14.98786,14.98786 0 0 1 15.81206,6.89327l5.98665,9.84289z" fill="#524F75" p-id="5560" id="svg_9"/>
  <path d="m344.92933,536.7458c31.7365,12.03824 58.68768,18.05486 80.86353,18.05486s35.55028,-9.30841 40.12831,-27.91773l19.62584,2.5575c-5.89175,31.27196 -23.61444,47.31379 -53.17058,48.1305s-58.70767,-5.30233 -87.4496,-18.34709l0,-22.47804l0.0025,0z" fill="#F4F4F4" p-id="5561" id="svg_10"/>
  <path d="m352.42201,554.33862c26.28683,11.24901 52.85089,16.4839 79.75212,15.74212c23.40464,-0.64687 37.76062,-11.63614 44.19933,-34.28152l-5.18993,-0.67684c-6.89826,17.915 -22.5305,27.16597 -45.39067,27.16847c-20.74724,0 -45.17838,-4.96266 -73.37085,-14.83551l0,6.88328zm-4.83528,-24.59599c30.95227,11.74104 57.05428,17.56535 78.20363,17.56535c18.88656,0 29.14404,-7.13553 32.85292,-22.2158a7.49268,7.49268 0 0 1 8.24445,-5.6395l19.62583,2.5575a7.49268,7.49268 0 0 1 6.39626,8.8164c-6.52863,34.64866 -27.15099,53.31793 -60.32859,54.23203c-30.71251,0.84668 -60.98794,-5.50462 -90.75138,-19.01143a7.50018,7.50018 0 0 1 -4.3957,-6.82334l0,-22.47805c0.00249,-5.24238 5.25237,-8.86384 10.15258,-7.00316z" fill="#524F75" p-id="5562" id="svg_11"/>
  <path d="m222.69213,510.22915c19.62387,12.40501 29.55062,29.58094 32.28817,60.45794s-17.36449,56.15062 -28.75895,66.44853l13.08879,20.80575c6.91203,2.51999 -0.82906,11.31871 -3.83194,16.96487l-30.81479,57.98041l-39.86604,-5.60533l20.932,-52.37302l-30.99253,-28.85041c-28.68481,-4.03139 -48.67028,-30.553 -44.63889,-59.23781c0.40112,-2.85414 1.03582,-5.66536 1.89882,-8.41423" fill="#F4F4F4" p-id="5565" id="svg_14"/>
  <path d="m107.94449,602.5555c29.61111,-31.03946 55.59542,-49.19374 77.95291,-54.46282c22.35962,-5.26626 55.89855,0.15352 100.61929,16.25969l-0.99083,8.05507c-38.29214,-3.27313 -69.40215,-2.6642 -93.32541,1.82997c-23.92504,4.48887 -49.68232,16.37987 -77.27432,35.67265l-6.98164,-7.35456z" fill="#8A88A2" p-id="5566" id="svg_15"/>
  <path d="m128.43621,631.06506c27.92451,-18.60796 51.88351,-28.82985 71.87982,-30.66779c22.874,-2.10692 55.52617,6.64352 97.95935,26.24919l-2.10005,7.83613c-37.46707,-8.56962 -68.35627,-12.29542 -92.67255,-11.1781c-20.4321,0.93684 -42.87285,6.87014 -67.32474,17.79957c-4.6474,2.07577 -11.76269,-7.36067 -7.74183,-10.039zm35.8152,27.4298c16.8773,-7.35329 31.46904,-10.95207 43.77486,-10.79387c8.14948,0.1037 17.6638,2.08903 28.54118,5.95069c13.41227,4.75766 17.91182,20.47726 6.40341,17.76779c-12.76546,-3.0072 -24.20718,-4.80943 -34.33045,-5.40491c-11.42114,-0.67448 -23.83583,0.53413 -37.24548,3.61808c-9.19243,2.11293 -15.21979,-7.61702 -7.14352,-11.13778zm18.17924,23.76079c12.97427,-1.94209 23.81254,-1.7682 32.51234,0.52133c5.9516,1.56533 12.5369,4.70525 19.7619,9.41302c4.83588,3.1513 -2.86839,3.43299 -3.92651,6.27803c-1.0107,2.72306 4.84403,8.13612 -0.00052,5.83607c-6.73308,-3.20103 -13.01142,-5.70763 -18.82867,-7.52899c-8.36888,-2.61629 -17.81023,-4.04407 -28.31663,-4.2823c-3.64531,-0.08355 -0.79226,-2.49221 -1.20227,-4.79703c-0.44005,-2.46793 -3.89245,-4.85732 0.00036,-5.44013z" fill="#8A88A2" p-id="5567" id="svg_16"/>
  <path d="m247.51461,571.35289c2.02483,22.81202 -10.09968,45.57246 -26.3158,60.22685a7.49019,7.49019 0 0 0 -1.3191,9.54742l13.09127,20.80609c0.25558,0.40667 0.54749,0.78818 0.87464,1.13429c-0.29508,0.55627 -0.67397,1.22434 -1.13705,1.98903c-0.25301,0.41842 -0.52646,0.85667 -0.88368,1.42438l-0.73592,1.16267c-0.29844,0.47257 -0.52966,0.84361 -0.74925,1.20368c-0.59403,0.96066 -1.06303,1.7674 -1.47487,2.54433l-28.35214,53.34284l-25.51905,-3.58647l15.83231,-43.68733a7.49518,7.49518 0 0 0 -1.76448,-7.86726l-29.04529,-28.85166a7.49268,7.49268 0 0 0 -4.23658,-2.10363c-19.75601,-2.77905 -34.83283,-27.54647 -38.25632,-52.82495c-2.33711,-17.23414 -3.12563,-28.81549 -2.60272,-34.18723a7.50018,7.50018 0 0 0 -6.73098,-8.18695a7.49518,7.49518 0 0 0 -8.18447,6.73133c-0.66933,6.84425 0.18307,19.33498 2.66534,37.65384c1.65351,12.19221 6.48552,26.55121 13.56057,38.17622c8.7782,14.41927 20.47849,24.16212 34.90374,27.04192l23.96811,23.81017l-17.34937,47.87772a7.49268,7.49268 0 0 0 6.00354,9.97124l39.86605,5.60533a7.49268,7.49268 0 0 0 7.6586,-3.90481l30.81656,-57.97512c0.43646,-0.82644 0.5174,-0.95378 2.40871,-3.96671c0.39594,-0.62785 0.70845,-1.1287 1.00755,-1.62387c2.21799,-3.65051 3.47989,-6.34837 3.93011,-9.3545c0.69209,-4.60141 -1.06541,-8.76776 -4.86908,-11.24184l-8.76546,-13.93575c17.00381,-17.44159 28.94134,-42.2813 26.63484,-68.27545c-2.87919,-32.43539 -13.57385,-52.11524 -35.74555,-66.13181a7.33284,7.33284 0 0 0 -1.15211,-0.59573c-13.9878,-5.7591 -26.7498,-7.55268 -38.21803,-5.16438a7.49268,7.49268 0 0 0 3.05538,14.67174c8.11645,-1.68911 17.71008,-0.39378 28.84886,4.10236c17.5933,11.33022 25.8223,26.69627 28.28112,54.442z" fill="#524F75" p-id="5568" id="svg_17"/>
  <path d="m121.63537,553.53056a8.72648,8.82388 7.992 1 0 -2.45365,17.47637a8.72648,8.82388 7.992 1 0 2.45365,-17.47637z" fill="#524F75" p-id="5569" id="svg_18"/>
  <path d="m190.62199,710.37966a23.72683,23.72683 0 0 1 20.19344,26.80054l-1.56382,11.12717l-46.99185,-6.60427l1.56417,-11.12965a23.72683,23.72683 0 0 1 26.79806,-20.19379z" fill="#8C664F" p-id="5570" id="svg_19"/>
  <path d="m203.39601,736.13494a16.23415,16.23415 0 0 0 -32.15231,-4.51871l-0.52139,3.70988l32.15231,4.51871l0.52139,-3.70988zm-11.73124,-33.17504c17.07288,2.39944 28.97021,18.18772 26.57077,35.2606l-1.56417,11.12965c-0.57561,4.09571 -4.36683,6.9526 -8.46254,6.37698l-46.99185,-6.60427a7.49268,7.49268 0 0 1 -6.37733,-8.46007l1.56452,-11.13212c2.39944,-17.07288 18.18772,-28.97021 35.2606,-26.57077z" fill="#524F75" p-id="5571" id="svg_20"/>
  <path d="m125.45865,373.20301l10.21003,55.01127l-53.26798,36.91146l46.56952,44.17935l-20.11285,40.97998c-16.44894,-16.05432 -27.42322,-27.36577 -32.92785,-33.93935c-4.15594,-4.96266 -13.68913,-15.91946 -28.60207,-32.86291a27.47317,27.47317 0 0 1 0.21729,-36.54431c12.93237,-14.34849 22.39563,-24.87321 28.38478,-31.56917c8.28691,-9.26346 24.79579,-23.31973 49.52913,-42.16632z" fill="#F4F4F4" p-id="5572" id="svg_21"/>
  <path d="m125.45865,373.20301l10.21003,55.01127l-53.26798,36.91146l46.56952,44.17935l-20.11285,40.97998c-16.44894,-16.05432 -27.42322,-27.36577 -32.92785,-33.93935c-4.15594,-4.96266 -13.68913,-15.91946 -28.60207,-32.86291a27.47317,27.47317 0 0 1 0.21729,-36.54431c12.93237,-14.34849 22.39563,-24.87321 28.38478,-31.56917c8.28691,-9.26346 24.79579,-23.31973 49.52913,-42.16632z" fill="#F4F4F4" p-id="5573" id="svg_22"/>
  <path d="m75.58236,412.38224c7.56012,4.98763 14.26357,10.02521 20.11286,15.10775c9.88285,8.58911 18.28714,18.15977 25.21787,28.70697l-13.26954,15.82954c-3.79379,-10.92184 -11.38888,-21.33667 -22.78525,-31.24449a118.44433,118.44433 0 0 0 -17.73768,-12.75005c-6.76089,-3.97362 3.24434,-19.09136 8.46174,-15.64972zm19.12383,68.26584c-9.35837,4.22587 -18.18475,7.53264 -26.48414,9.91032a144.07181,144.07181 0 0 1 -14.37846,3.35173c-7.80488,1.40113 -14.6432,-15.47239 -6.2414,-16.4889c4.90021,-0.59442 10.02521,-1.65838 15.37248,-3.18939a118.60917,118.60917 0 0 0 21.04945,-8.28191c6.77089,-3.43914 15.51734,12.51528 10.68207,14.69815zm19.43851,18.08234c-10.29744,10.50724 -20.93455,19.32613 -31.91633,26.45916c-8.09959,5.25737 -3.1719,-1.35867 -6.03411,-4.52558c-2.95961,-3.2743 -14.42341,-2.64991 -4.76534,-8.92129c12.66513,-8.22447 23.05248,-18.26716 31.15957,-30.13057l11.55621,17.11828z" fill="#8A88A2" p-id="5574" id="svg_23"/>
  <path d="m81.51657,420.36445c-5.99665,6.70595 -15.4649,17.23317 -28.40476,31.58665a19.98548,19.98548 0 0 0 -0.15735,26.58154c14.95539,16.99341 24.51106,27.97269 28.72195,33.00278c4.44816,5.31231 12.81498,14.05377 25.02806,26.13198l13.11219,-26.71641l-42.57342,-40.38806a7.49268,7.49268 0 0 1 0.88913,-11.59618l49.28437,-34.14915l-7.09057,-38.20019c-19.04391,14.85799 -32.02373,26.15945 -38.8096,33.74704zm12.72757,45.6704l39.88355,37.83305a7.48769,7.48769 0 0 1 1.56847,8.73647l-20.11286,40.97998a7.49268,7.49268 0 0 1 -11.96082,2.05799c-16.62127,-16.21916 -27.72792,-27.66548 -33.43985,-34.49132c-4.10349,-4.90021 -13.6142,-15.82704 -28.48218,-32.72554a34.96336,34.96336 0 0 1 0.27723,-46.50958c12.92737,-14.34099 22.38314,-24.85822 28.3648,-31.54669c8.69151,-9.71801 25.48011,-24.01155 50.57061,-43.13038c4.44067,-3.3842 10.88937,-0.89663 11.90837,4.59301l10.21003,55.01378a7.50018,7.50018 0 0 1 -3.09947,7.52515l-45.68788,31.66408z" fill="#524F75" p-id="5575" id="svg_24"/>
  <path d="m91.59922,463.68964l-12.61768,-12.92488a7.49268,7.49268 0 0 0 -10.72453,10.46728l12.61768,12.92488a7.49268,7.49268 0 0 0 10.72453,-10.46728z" fill="#524F75" p-id="5576" id="svg_25"/>
  <path d="m309.97596,326.49362c29.45623,-13.19711 45.59298,-39.14927 41.93405,-78.94291c-4.49062,-48.81732 -22.25327,-81.9225 -86.55547,-87.32971c-42.86814,-3.60398 -100.94393,13.55676 -174.22986,51.48222c-44.85869,19.55091 -71.17799,52.37635 -62.00944,95.46427c8.74895,41.12484 55.01877,66.30275 96.71805,60.54837c-0.25226,1.99306 -0.49452,4.02357 -0.72929,6.09405c-5.63949,49.60906 -14.67317,90.14946 -15.8745,119.18611c-1.07395,25.99461 1.86318,47.49362 5.27735,63.65534c9.86287,46.40218 49.01713,69.06005 85.87613,70.32882s82.85409,-2.83474 119.22857,-25.39271c40.6503,-25.21288 57.2391,-74.77198 34.60371,-116.47126c-14.2336,-26.22439 -26.17694,-62.03691 -27.62552,-68.83777c-1.58595,-7.45772 -7.54514,-62.01944 -8.64906,-67.21436c-1.77327,-8.34435 -4.46813,-15.88199 -7.96472,-22.57046z" fill="#F4F4F4" p-id="5577" id="svg_26"/>
  <path d="m351.91001,247.54822c-4.49061,-48.81733 -22.25327,-81.9225 -86.55547,-87.32972c-42.86814,-3.60148 -100.94392,13.55926 -174.22986,51.48472c-44.85869,19.55091 -71.17799,52.37635 -62.00944,95.46427c8.74896,41.12484 55.01877,66.30275 96.71805,60.54837c-0.25226,1.99306 -0.49452,4.02357 -0.72929,6.09405c-5.63949,49.60906 -14.67317,90.14946 -15.8745,119.18611c-1.07395,25.99461 1.86318,47.49362 5.27735,63.65534c9.86287,46.40218 49.01713,69.06005 85.87614,70.32882s82.85408,-2.83474 119.22856,-25.39271c40.6503,-25.21288 57.2391,-74.77198 34.60371,-116.47126c-14.2336,-26.22439 -26.17694,-62.03691 -27.62552,-68.83777c-1.58595,-7.45772 -7.54513,-62.01944 -8.64906,-67.21436c-1.77576,-8.34435 -4.47063,-15.88199 -7.96722,-22.57296c29.45874,-13.19461 45.59548,-39.14927 41.93655,-78.94291l0,0.00001zm-19.31114,98.4014c0.6144,2.88968 0.78673,4.29581 4.49561,35.15817c2.3552,19.61084 3.66142,29.72846 4.15594,32.05369c2.16039,10.17756 15.20016,44.66389 26.13698,64.80921c26.13447,48.14549 8.11707,106.58841 -39.87856,136.35185c-34.69862,21.51898 -78.44589,29.32886 -127.64285,27.63301c-47.96066,-1.64839 -89.45764,-32.51325 -100.01982,-82.20722c-4.45565,-21.08441 -6.58857,-43.19282 -5.58955,-67.3742c0.4096,-9.87536 1.62592,-21.06193 3.77881,-35.99485c1.19384,-8.27692 6.07158,-39.44898 6.51614,-42.36613a1251.67516,1251.67516 0 0 0 4.3033,-30.58763c-44.21183,-1.97057 -85.48902,-31.27945 -94.39782,-73.14107c-10.37237,-48.7474 17.07083,-88.79079 70.21643,-112.11551c75.36141,-38.94947 135.76242,-56.76207 181.93733,-52.88336c66.17538,5.56457 94.45526,38.21518 100.22213,100.88898c3.59149,39.02688 -9.87036,69.09003 -37.74564,86.99754a110.61198,110.61198 0 0 1 3.51157,12.77752z" fill="#524F75" p-id="5578" id="svg_27"/>
  <path d="m358.80078,494.99407a86.47805,86.47805 0 0 0 -4.58302,-9.87536a247.71559,247.71559 0 0 1 -5.73191,-11.28648c-1.25377,0.42209 -2.50255,0.82919 -3.74384,1.22381c-37.89799,12.06821 -82.17725,15.3575 -132.84027,9.86786l0,5.35477c49.17198,16.24914 96.28846,18.3371 141.35196,6.26389a300.80624,300.80624 0 0 0 5.54708,-1.54849zm-20.84464,-45.50057a422.42248,422.42248 0 0 1 -8.85136,-24.54603a249.58127,249.58127 0 0 1 -7.59258,2.85721c-37.45343,13.38194 -82.07735,18.20722 -133.86927,14.46837l0.18731,5.34978c49.669,16.77612 96.81046,18.34209 141.42439,4.70291a263.51766,263.51766 0 0 0 8.70151,-2.83224zm-214.68785,-60.67075c-0.75676,5.81182 -1.54848,11.48379 -2.3502,17.01339c36.63922,8.27691 73.4158,9.82041 110.32726,4.63297c30.47024,-4.28332 60.58583,-15.21014 90.34927,-32.78298c-1.12141,-9.35087 -2.18038,-18.17226 -2.89718,-23.57948c-35.1207,14.98537 -66.2528,25.03056 -93.39629,30.14057c-30.62759,5.76687 -64.63688,7.29288 -102.03286,4.57553zm-42.83317,-172.02201c-38.26014,19.92804 -59.73416,50.82537 -51.31988,90.36675c8.74895,41.12484 55.01877,66.30275 96.71805,60.54837c-0.25226,1.99306 -0.49452,4.02357 -0.72929,6.09405c-0.18982,1.67586 -0.38462,3.34174 -0.58193,4.99762c38.20269,-17.17573 56.57725,-61.47996 41.17978,-100.89147c-14.07126,-36.01233 -47.9207,-59.43696 -85.26673,-61.11532z" fill="#8A88A2" p-id="5579" id="svg_28"/>
  <path d="m86.01717,264.49666c7.49268,-4.97014 11.41635,-7.33783 15.6722,-9.15356c2.93713,-1.25377 6.60854,-0.37713 8.95875,2.32773c1.88066,2.16289 2.09046,6.83333 0.77924,9.13857c-1.22131,2.14791 -5.43969,7.19798 -12.30549,14.56328a7.49268,7.49268 0 1 0 10.9618,10.21752c7.69249,-8.24944 12.36542,-13.84647 14.37096,-17.37553c4.3083,-7.5751 3.7888,-19.1488 -2.49506,-26.37924c-6.58357,-7.5726 -17.18322,-10.10763 -26.15446,-6.27886c-5.38973,2.30774 -9.80043,4.96764 -18.07235,10.45479a7.49268,7.49268 0 0 0 8.28441,12.4853z" fill="#524F75" p-id="5580" id="svg_29"/>
  <path d="m83.69694,268.11063l9.86037,-5.24987a5.85428,5.85428 0 0 1 7.69748,2.03551a6.56858,6.56858 0 0 1 -1.05647,8.3019l-8.53167,7.99469a7.23543,7.23543 0 0 1 -11.09167,-1.45608a8.24195,8.24195 0 0 1 3.12196,-11.62615z" fill="#75738E" p-id="5581" id="svg_30"/>
  <path d="m139.01791,446.47895c15.0603,-4.35075 30.75497,5.12 38.07282,18.98396c10.0327,19.01143 18.36207,34.11168 20.42256,43.63988c1.42111,6.57358 10.49475,36.61674 10.49225,46.58201c-0.0025,20.36511 -12.77502,43.96956 -39.96097,43.96956c-17.68024,0 -39.20422,-26.65897 -44.68886,-43.96956c-3.03954,-9.59813 -11.48629,-49.26939 -8.36433,-72.4992c3.12445,-23.23481 9.22848,-32.42833 24.02653,-36.70665z" fill="#FFFFFF" p-id="5582" id="svg_31"/>
  <path d="m126.11551,382.69374c21.15684,-2.7698 32.96781,-5.62451 52.96828,-14.04629a7.49268,7.49268 0 0 0 -5.81433,-13.81151c-18.61682,7.83735 -29.17401,10.38986 -49.09955,12.99981a7.49268,7.49268 0 1 0 1.9456,14.85799zm155.35329,-34.07423c0.79672,-0.1049 1.61342,-0.2073 2.63243,-0.33717l2.59496,-0.32468c5.08004,-0.63938 8.05963,-1.07645 11.31396,-1.71832c10.63711,-2.09546 19.84562,-5.88675 30.79992,-13.19712a7.49268,7.49268 0 0 0 -8.31688,-12.46532c-9.31091,6.21143 -16.67621,9.24597 -25.37772,10.96179c-2.82724,0.55696 -5.53209,0.95407 -10.28745,1.55099a1049.04055,1049.04055 0 0 0 -5.30232,0.67184a7.49268,7.49268 0 1 0 1.9431,14.85799z" fill="#524F75" p-id="5583" id="svg_32"/>
  <path d="m250.02201,345.89218a8.82138,8.72648 90 1 0 17.45296,0a8.82138,8.72648 90 1 0 -17.45296,0z" fill="#524F75" p-id="5584" id="svg_33"/>
  <path d="m291.69881,224.94029c24.30876,-46.31727 20.92207,-79.5573 35.70513,-98.44136c21.28172,-27.18346 67.10697,-48.43271 81.6103,-38.93948c13.91891,10.21003 5.44968,63.65784 -14.9429,89.26533c-13.35946,16.77612 -49.19946,26.85378 -81.80012,73.36585" fill="#F4F4F4" p-id="5585" id="svg_34"/>
  <path d="m403.44718,92.85678c3.47411,2.77479 5.18494,15.36 2.83473,31.4418c-2.61744,17.90501 -9.39582,36.09475 -17.98493,47.27383c-0.50701,0.66435 -1.08145,1.33869 -1.71833,2.02552c-3.54403,3.81378 -7.27789,6.65101 -18.90403,14.73062c-12.88742,8.95625 -19.99298,14.30103 -28.60207,22.03847c-11.60117,10.42482 -22.00851,22.2258 -31.55169,36.362a7.49518,7.49518 0 0 0 12.42287,8.38431c8.83637,-13.09222 18.4345,-23.97409 29.14653,-33.60219c8.02716,-7.21545 14.72562,-12.25303 27.136,-20.87711c12.65015,-8.79142 16.75114,-11.90837 21.33417,-16.84105c0.94658,-1.01901 1.82072,-2.048 2.62244,-3.09198c22.00101,-28.63704 30.52269,-86.93511 11.76351,-100.19466l-0.32968,-0.21978c-19.11383,-12.04324 -68.27832,12.23305 -90.89124,42.1813c-6.54111,8.66154 -9.25096,16.90849 -14.04378,38.13776c-6.3563,28.14252 -10.61214,42.0864 -20.65233,62.0594a7.49268,7.49268 0 1 0 13.38692,6.73092c10.72953,-21.33916 15.27509,-36.2446 21.88114,-65.49104c4.3008,-19.0439 6.61603,-26.08952 11.38887,-32.40835c9.14357,-12.11068 24.34123,-23.98908 40.09834,-31.77148c14.20863,-7.01814 26.39423,-9.27844 30.66256,-6.86829z" fill="#524F75" p-id="5586" id="svg_35"/>
  <path d="m327.66619,187.97139c12.44035,-23.49705 10.6496,-40.38805 18.22969,-49.96121c10.91185,-13.77904 34.46135,-24.50856 41.93655,-19.66579c7.17799,5.20741 2.89717,32.34841 -7.56012,45.32823c-5.57705,6.92574 -18.8366,11.5737 -32.59067,25.79981c-3.13444,3.24183 -5.10502,4.44066 -8.20449,8.81639s-9.88285,8.40929 -14.44339,4.62548c-2.13042,-1.76577 -1.25378,-6.74841 2.63243,-14.94291z" fill="#F0D2CB" p-id="5587" id="svg_36"/>
  <path d="m152.61713,219.68293c16.55134,0 29.97073,-14.7531 29.97073,-32.95282s-13.41939,-34.48133 -29.97073,-34.48133s-29.97073,16.2841 -29.97073,34.48133s13.41939,32.95282 29.97073,32.95282z" fill="#FFFFFF" p-id="5588" id="svg_37"/>
  <path d="m152.61713,227.17561c-20.85713,0 -37.46341,-18.25967 -37.46341,-40.4455c0,-22.38814 16.73865,-41.97401 37.46341,-41.97401s37.46342,19.58337 37.46342,41.97401c0,22.18833 -16.60629,40.4455 -37.46342,40.4455zm0,-14.98537c12.24804,0 22.47805,-11.24901 22.47805,-25.46013c0,-14.59075 -10.59715,-26.98865 -22.47805,-26.98865s-22.47805,12.3979 -22.47805,26.98865c0,14.21362 10.23001,25.46013 22.47805,25.46013z" fill="#524F75" p-id="5589" id="svg_38"/>
  <path d="m134.75957,196.24332c1.60343,2.11793 3.97362,3.45912 6.61604,3.45912c4.82779,0 8.74146,-4.47313 8.74146,-9.99024s-3.91367,-9.99025 -8.74146,-9.99025c-4.76784,0 -8.64656,4.36324 -8.74146,9.78794l6.48117,1.07645l-4.35575,5.65698z" fill="#232323" p-id="5590" id="svg_39"/>
  <path d="m225.0464,224.67805c23.4496,0 42.45854,-18.82911 42.45854,-42.05393c0,-23.22482 -21.22428,-42.86314 -44.67388,-42.86314s-40.2432,19.63832 -40.2432,42.86314c0,23.22731 19.00894,42.05393 42.45854,42.05393z" fill="#FFFFFF" p-id="5591" id="svg_40"/>
  <path d="m225.0464,232.17073c-27.57307,0 -49.95122,-22.16585 -49.95122,-49.54661c0,-27.83532 20.54993,-50.35583 47.73588,-50.35583c27.76039,0 52.16656,23.1474 52.16656,50.35583c0,27.38076 -22.37815,49.54661 -49.95122,49.54661zm0,-14.98536c19.32613,0 34.96585,-15.48988 34.96585,-34.56125c0,-18.74919 -17.52288,-35.37046 -37.18119,-35.37046c-18.58685,0 -32.75051,15.51984 -32.75051,35.37046c0,19.07137 15.63972,34.56125 34.96585,34.56125z" fill="#524F75" p-id="5592" id="svg_41"/>
  <path d="m203.10782,194.58244a13.73658,13.73658 0 1 0 10.69956,-22.35317a13.73658,13.73658 0 0 0 -13.7216,14.37846l9.14357,1.28125l-6.12153,6.69346z" fill="#232323" p-id="5593" id="svg_42"/>
  <path d="m347.79902,512.39707c21.15934,9.55567 33.37741,25.18541 40.38806,55.38092s-9.38084,58.02084 -19.22872,69.80183l15.85951,18.78416c7.19548,1.53101 0.75177,11.32394 -1.4336,17.33058l-22.44808,61.70224l-40.25568,0l21.74876,-56.86447a14.98537,14.98537 0 0 0 0.39211,-9.54068l-3.96113,-13.61421a52.53869,52.53869 0 0 1 -10.12261,0.98654l-29.32886,0c-28.96671,0 -52.44878,-23.48207 -52.44878,-52.44878c0,-2.87719 0.23727,-5.75688 0.70931,-8.59411" fill="#F4F4F4" p-id="5594" id="svg_43"/>
  <path d="m347.79902,512.39707c21.15934,9.55567 33.37741,25.18541 40.38806,55.38092s-9.38084,58.02084 -19.22872,69.80183l15.85951,18.78416c7.19548,1.53101 0.75177,11.32394 -1.4336,17.33058l-22.44808,61.70224l-40.25568,0l21.74876,-56.86447a14.98537,14.98537 0 0 0 0.39211,-9.54068l-3.96113,-13.61421a52.53869,52.53869 0 0 1 -10.12261,0.98654l-29.32886,0c-28.96671,0 -52.44878,-23.48207 -52.44878,-52.44878c0,-2.87719 0.23727,-5.75688 0.70931,-8.59411" fill="#F4F4F4" p-id="5595" id="svg_44"/>
  <path d="m247.01994,619.79469c25.00059,-34.85596 48.20543,-56.45237 69.61702,-64.77924c15.58478,-6.06407 37.83305,-7.34033 66.74482,-3.83375c10.78946,1.30872 12.31047,15.60476 1.91313,16.7961c-23.2473,2.6574 -42.84067,6.67348 -58.7776,12.04573c-23.06748,7.77491 -46.91918,23.13741 -71.55762,46.0825l-7.93975,-6.31134zm10.02771,26.9337c29.57861,-28.43973 55.55075,-45.29577 77.90892,-50.56062c14.14368,-3.33175 32.768,-2.90716 55.87543,1.27375c-0.95407,7.45272 -5.23988,15.71216 -4.88273,17.09331c-16.94595,0.17483 -31.82892,1.46857 -44.6489,3.87372c-21.35664,4.00858 -44.17686,13.91641 -68.45815,29.72347a83.60336,83.60336 0 0 1 -6.58357,3.83625l-9.211,-5.23988zm73.97775,6.08656c4.38073,-2.6699 8.65905,-4.77784 12.83497,-6.31883c8.34935,-3.0795 19.01643,-4.65546 32.01124,-4.72289c5.97417,-0.03247 3.67391,3.90868 5.86427,6.84581c2.78478,3.73136 8.6016,6.73593 1.84071,7.6875c-12.40789,1.74829 -23.26478,4.10349 -32.58069,7.0631a106.33116,106.33116 0 0 0 -8.11707,2.94962c-7.14302,2.91965 -4.45065,-3.35672 -7.49518,-5.8418c-3.72386,-3.03453 -11.80098,-3.12195 -4.35825,-7.66251zm9.78545,23.93412c7.49518,-1.39114 14.19614,-1.7358 20.10037,-1.03898c5.69694,0.67434 12.13065,2.62244 19.30365,5.84679c5.99414,2.69487 4.22837,5.5271 2.39516,8.43176c-1.40863,2.23532 -1.49854,5.24488 -6.41873,3.80379c-5.81932,-1.70334 -11.25151,-2.9696 -16.29659,-3.80379c-6.38127,-1.05147 -13.24706,-1.38364 -20.59988,-0.99153c-5.26236,0.27973 -4.50061,-2.83223 -3.75883,-5.97416c0.63188,-2.69237 0.46205,-5.37975 5.27485,-6.27388z" fill="#8A88A2" p-id="5596" id="svg_45"/>
  <path d="m380.88921,569.46884c5.17994,22.31071 -3.65893,46.53705 -17.67774,63.30568a7.48519,7.48519 0 0 0 0.02248,9.63809l15.85702,18.78415c0.31219,0.36714 0.65436,0.70182 1.024,0.99903c-0.21479,0.59192 -0.49452,1.30372 -0.84917,2.13042c-0.19232,0.44956 -0.39961,0.9216 -0.67684,1.531l-0.56695,1.25627c-0.22978,0.50951 -0.4071,0.90912 -0.57444,1.29624c-0.45206,1.03399 -0.80421,1.89814 -1.10392,2.72484l-20.65483,56.76956l-24.12144,0l17.85756,-46.6944a22.48055,22.48055 0 0 0 0.58942,-14.30853l-3.96113,-13.6142a7.49268,7.49268 0 0 0 -8.64156,-5.25737a44.96858,44.96858 0 0 1 -8.67653,0.84417l-29.32636,0c-24.82576,0 -44.9561,-20.12784 -44.9561,-44.95609c0,-2.46759 0.2048,-4.93269 0.60941,-7.36531a7.49268,7.49268 0 1 0 -14.78307,-2.4576a59.95145,59.95145 0 0 0 -0.8117,9.82541c0,33.10517 26.83629,59.94146 59.94146,59.94146l29.32886,0c1.58095,0 3.15692,-0.06244 4.73288,-0.18732l2.15539,7.42026a7.4777,7.4777 0 0 1 -0.19481,4.76784l-21.75126,56.86697c-1.87566,4.90521 1.7458,10.16757 7.00067,10.16757l40.25568,0a7.49268,7.49268 0 0 0 7.04063,-4.93269l22.44558,-61.69974c0.31969,-0.88164 0.37963,-1.01651 1.83571,-4.26334c0.3047,-0.67684 0.54197,-1.21631 0.77174,-1.74829c1.68835,-3.92367 2.56,-6.77339 2.58997,-9.81042c0.04496,-4.65296 -2.27777,-8.53666 -6.38626,-10.45479l-10.62462,-12.58022c14.41342,-19.63832 22.77526,-45.90267 16.87602,-71.31785c-7.36032,-31.72652 -20.6923,-49.72144 -44.59895,-60.5209a7.56761,7.56761 0 0 0 -1.2238,-0.42958c-14.6507,-3.75633 -27.53811,-3.75633 -38.56235,0.2073a7.49268,7.49268 0 1 0 5.06756,14.10373c7.79988,-2.80477 17.48292,-2.85472 29.13654,0.04495c19.00144,8.76894 29.2889,22.84519 35.58525,49.9737z" fill="#524F75" p-id="5597" id="svg_46"/>
  <path d="m245.02689,578.16535a8.82138,8.72648 90 1 0 17.45295,0a8.82138,8.72648 90 1 0 -17.45295,0z" fill="#524F75" p-id="5598" id="svg_47"/>
  <path d="m342.68542,715.70732a23.72683,23.72683 0 0 1 23.72683,23.72683l0,11.23902l-47.45366,0l0,-11.23902a23.72683,23.72683 0 0 1 23.72683,-23.72683z" fill="#8C664F" p-id="5599" id="svg_48"/>
  <path d="m358.91957,739.43415a16.23415,16.23415 0 1 0 -32.46829,0l0,3.74634l32.46829,0l0,-3.74634zm-16.23415,-31.21952c17.24067,0 31.21952,13.97885 31.21952,31.21952l0,11.23902a7.49268,7.49268 0 0 1 -7.49269,7.49268l-47.45365,0a7.49268,7.49268 0 0 1 -7.49269,-7.49268l0,-11.23902c0,-17.24067 13.97885,-31.21952 31.21951,-31.21952z" fill="#524F75" p-id="5600" id="svg_49"/>
  <path d="m299.98821,384.52195c21.18682,9.30342 37.88551,17.2032 50.09358,23.70185c12.20558,6.49866 23.2498,14.11872 33.13515,22.85768c17.82009,-11.41135 30.53268,-19.03141 38.13775,-22.85768s24.1739,-12.8949 49.69897,-27.20343l13.89643,30.50271c-25.83228,18.40952 -44.42662,30.68254 -55.78053,36.82154s-26.67145,12.2955 -45.95512,18.47446c-17.57784,-5.39473 -31.42431,-10.24 -41.54193,-14.53081c-10.11762,-4.28831 -23.11743,-11.3589 -38.99942,-21.20679" fill="#F4F4F4" p-id="5601" id="svg_50"/>
  <path d="m362.43973,414.37779a118.48679,118.48679 0 0 0 -9.35836,17.83009a138.41733,138.41733 0 0 0 -6.60855,19.5659c-1.90814,7.38528 -16.83856,1.38614 -15.50486,-5.7344c1.47606,-7.87481 3.60148,-15.08278 6.37877,-21.62139a81.65026,81.65026 0 0 1 10.24,-17.71021c3.80129,-4.98762 18.47196,2.04051 14.853,7.67001zm36.45939,13.322a123.52937,123.52937 0 0 0 -5.85928,12.00078c-3.56901,8.40429 -6.32132,17.3031 -8.26442,26.69143c-1.07396,5.18244 -15.74213,0.42209 -15.19017,-4.13596c1.37616,-11.34642 3.94615,-21.46154 7.71746,-30.34287c7.93475,-18.68425 26.05706,-12.1856 21.59641,-4.21338zm22.07844,23.9541c0.04746,-6.87079 -0.57194,-13.95887 -1.86068,-21.26173a137.74049,137.74049 0 0 0 -4.73538,-18.86158c-2.48257,-7.62006 12.43536,-12.56274 15.08277,-6.36629c3.40418,7.96472 5.77187,15.69468 7.09058,23.18986c1.11141,6.30134 1.50353,12.52776 1.17385,18.67926c-0.36964,6.8558 -16.7936,10.88686 -16.75114,4.62048z" fill="#8A88A2" p-id="5602" id="svg_51"/>
  <path d="m457.75914,420.64418c-14.95539,10.57217 -25.72238,17.63527 -32.1511,21.10688c-10.45979,5.65698 -24.61846,11.40636 -42.44355,17.2107c-16.2841,-5.04757 -29.15153,-9.57815 -38.56484,-13.57175c-9.70802,-4.11598 -22.39063,-11.01424 -37.97542,-20.67731a7.49268,7.49268 0 0 0 -7.89728,12.73756c16.18169,10.0352 29.49869,17.27314 40.02341,21.73628c10.38986,4.41069 24.46361,9.33089 42.26872,14.79805c1.46108,0.44956 3.02705,0.43957 4.48313,-0.02748c19.69326,-6.31133 35.4204,-12.63516 47.23387,-19.01892c7.92476,-4.28582 20.992,-12.95985 39.40901,-26.13698a7.48769,7.48769 0 0 0 2.04051,-9.98775l-18.51692,-30.42279a7.49268,7.49268 0 0 0 -10.2375,-2.54002c-13.39192,7.98471 -22.58544,13.23458 -27.44819,15.67969c-7.19548,3.62146 -18.53191,10.35489 -34.11669,20.25023c-9.20101,-7.60508 -19.29116,-14.32851 -30.26544,-20.17031c-12.39789,-6.59855 -29.25393,-14.57576 -50.60059,-23.94911a7.49268,7.49268 0 0 0 -6.02411,13.7216c21.03196,9.23348 37.56831,17.05834 49.58407,23.4546c11.69358,6.22642 22.25327,13.5093 31.69156,21.85615a7.49019,7.49019 0 0 0 9.0037,0.69682c17.6128,-11.28148 30.15056,-18.79414 37.46342,-22.47305c4.41568,-2.22033 11.72105,-6.34381 22.00101,-12.40788l11.03922,18.13479z" fill="#524F75" p-id="5603" id="svg_52"/>
  <path d="m483.74876,393.24843a19.33862,19.33862 0 0 1 -11.30146,26.68144l-7.91727,2.65241l-16.1767,-29.19149l8.5941,-6.57857a17.74767,17.74767 0 0 1 26.80133,6.43621z" fill="#8C664F" p-id="5604" id="svg_53"/>
  <path d="m469.21795,412.81682a11.84593,11.84593 0 0 0 8.04964,-15.82455a10.25249,10.25249 0 0 0 -15.19017,-4.79032l-3.63894,2.40265l8.73647,18.7392l2.043,-0.52698zm6.88578,13.48683c-1.02151,0.40211 -2.06798,0.74177 -3.12945,1.01651l-8.07961,2.09545a7.49268,7.49268 0 0 1 -8.66903,-4.08851l-14.10123,-30.25046a7.49518,7.49518 0 0 1 2.6624,-9.4183l9.03368,-5.96168c11.63114,-7.6825 27.29085,-4.47812 34.97334,7.15552c0.96156,1.45607 1.77077,3.01206 2.41015,4.63547c5.44218,13.78404 -1.31622,29.37132 -15.10025,34.816z" fill="#524F75" p-id="5605" id="svg_54"/>
 </g>

</svg>